<svg width="13" height="10" viewBox="0 0 13 10" fill="none" xmlns="http://www.w3.org/2000/svg">
<path d="M6.5 0C3.54545 0 1.02227 2.07333 0 5C1.02227 7.92667 3.54545 10 6.5 10C9.45455 10 11.9777 7.92667 13 5C11.9777 2.07333 9.45455 0 6.5 0ZM6.5 8.33333C4.86909 8.33333 3.54545 6.84 3.54545 5C3.54545 3.16 4.86909 1.66667 6.5 1.66667C8.13091 1.66667 9.45455 3.16 9.45455 5C9.45455 6.84 8.13091 8.33333 6.5 8.33333ZM6.5 3C5.51909 3 4.72727 3.89333 4.72727 5C4.72727 6.10667 5.51909 7 6.5 7C7.48091 7 8.27273 6.10667 8.27273 5C8.27273 3.89333 7.48091 3 6.5 3Z" fill="black"/>
</svg>
