<svg width="13" height="12" viewBox="0 0 13 12" fill="none" xmlns="http://www.w3.org/2000/svg">
<path d="M6.565 10.1075L6.5 10.1725L6.4285 10.1075C3.341 7.306 1.3 5.4535 1.3 3.575C1.3 2.275 2.275 1.3 3.575 1.3C4.576 1.3 5.551 1.95 5.8955 2.834H7.1045C7.449 1.95 8.424 1.3 9.425 1.3C10.725 1.3 11.7 2.275 11.7 3.575C11.7 5.4535 9.659 7.306 6.565 10.1075ZM9.425 0C8.294 0 7.2085 0.5265 6.5 1.352C5.7915 0.5265 4.706 0 3.575 0C1.573 0 0 1.5665 0 3.575C0 6.0255 2.21 8.034 5.5575 11.0695L6.5 11.9275L7.4425 11.0695C10.79 8.034 13 6.0255 13 3.575C13 1.5665 11.427 0 9.425 0Z" fill="black"/>
</svg>
